name Precision Landing04_filtered_grf.mot
datacolumns 37
datarows 5
range 1.735000 1.737000
endheader
time	1_ground_force_vx	1_ground_force_vy	1_ground_force_vz	1_ground_force_px	1_ground_force_py	1_ground_force_pz	1_ground_torque_x	1_ground_torque_y	1_ground_torque_z	2_ground_force_vx	2_ground_force_vy	2_ground_force_vz	2_ground_force_px	2_ground_force_py	2_ground_force_pz	2_ground_torque_x	2_ground_torque_y	2_ground_torque_z	3_ground_force_vx	3_ground_force_vy	3_ground_force_vz	3_ground_force_px	3_ground_force_py	3_ground_force_pz	3_ground_torque_x	3_ground_torque_y	3_ground_torque_z	4_ground_force_vx	4_ground_force_vy	4_ground_force_vz	4_ground_force_px	4_ground_force_py	4_ground_force_pz	4_ground_torque_x	4_ground_torque_y	4_ground_torque_z
            1.735000	          -20.538264	          186.805861	           24.514180	            0.117854	            0.000000	            0.242754	           -0.474712	            4.317747	            0.566610	           33.204167	          342.711489	           -3.270209	           -0.122448	            0.000000	            0.288829	            0.256064	            2.642919	           -0.025219	            1.042880	           -1.067226	           -0.445291	            0.352249	            1.256292	            1.892610	           -0.018446	           -0.000251	           -0.010103	           -4.079398	            0.753990	            2.495328	           -0.288922	            1.265026	            1.901097	           -0.025120	            0.139350	           -0.003981
            1.735500	          -20.612799	          186.976807	           24.393575	            0.117960	            0.000000	            0.242896	           -0.476154	            4.319147	            0.563489	           33.226674	          342.266463	           -3.204708	           -0.122447	            0.000000	            0.288815	            0.258015	            2.657799	           -0.024885	            1.027967	           -1.090988	           -0.454843	            0.352248	            1.256292	            1.892611	           -0.018080	           -0.000364	           -0.010336	           -4.076163	            0.742428	            2.479109	           -0.288924	            1.265027	            1.901099	           -0.024958	            0.139047	           -0.003903
            1.736000	          -20.686686	          187.140102	           24.271935	            0.118066	            0.000000	            0.243036	           -0.477608	            4.320634	            0.560383	           33.249289	          341.826352	           -3.137722	           -0.122446	            0.000000	            0.288800	            0.260001	            2.672997	           -0.024536	            1.015235	           -1.113381	           -0.463468	            0.352248	            1.256293	            1.892612	           -0.017665	           -0.000494	           -0.010499	           -4.072962	            0.730254	            2.462630	           -0.288927	            1.265028	            1.901100	           -0.024812	            0.138774	           -0.003781
            1.736500	          -20.759966	          187.295715	           24.149429	            0.118170	            0.000000	            0.243174	           -0.479076	            4.322207	            0.557294	           33.271951	          341.390960	           -3.069302	           -0.122444	            0.000000	            0.288784	            0.262021	            2.688499	           -0.024171	            1.004746	           -1.134270	           -0.471000	            0.352248	            1.256293	            1.892613	           -0.017205	           -0.000642	           -0.010590	           -4.069801	            0.717542	            2.445917	           -0.288929	            1.265029	            1.901102	           -0.024684	            0.138529	           -0.003615
            1.737000	          -20.832673	          187.443646	           24.026235	            0.118274	            0.000000	            0.243309	           -0.480559	            4.323866	            0.554226	           33.294599	          340.960088	           -2.999507	           -0.122442	            0.000000	            0.288767	            0.264073	            2.704289	           -0.023790	            0.996537	           -1.153539	           -0.477285	            0.352248	            1.256294	            1.892613	           -0.016703	           -0.000811	           -0.010609	           -4.066676	            0.704369	            2.429000	           -0.288931	            1.265029	            1.901103	           -0.024573	            0.138315	           -0.003406
